<svg xmlns="http://www.w3.org/2000/svg" xmlns:xlink="http://www.w3.org/1999/xlink" version="1.1" x="0px" y="0px" viewBox="4 13 94 75" height="50" width="50" enable-background="new 0 0 100 100" xml:space="preserve" style="margin:10px 58px;"><rect x="5" y="5" fill="none" width="90" height="90"/><path d="M86.626,15.697H13.373c-4.129,0-7.488,3.359-7.488,7.488v37.896c0,4.129,3.359,7.487,7.488,7.487h5.85v15.158  c0,0.229,0.136,0.437,0.347,0.527c0.074,0.033,0.152,0.049,0.229,0.049c0.144,0,0.285-0.055,0.394-0.156l16.681-15.578h49.752  c4.129,0,7.488-3.358,7.488-7.487V23.185C94.114,19.056,90.755,15.697,86.626,15.697z"/></svg>