<svg xmlns="http://www.w3.org/2000/svg" xmlns:xlink="http://www.w3.org/1999/xlink" version="1.1" x="0px" y="0px" viewBox="18 36 68 34" height="50" width="75" enable-background="new 0 0 100 100" xml:space="preserve" style="margin: 0px 30px;"><g><path d="M82.075,51.62l-6.338-1.471l-1.713-5.566c0-1.325-1.074-2.398-2.398-2.398H61.609c-1.324,0-2.398,1.073-2.398,2.398v15.891   c0,1.325,1.074,2.398,2.398,2.398h2.756c0-4.072,3.313-7.385,7.385-7.385s7.385,3.313,7.385,7.385h2.939   c1.006,0,1.822-0.816,1.822-1.822v-7.608C83.897,52.437,83.081,51.62,82.075,51.62z M69.038,46.032v2.587v1.03   c0,0.347-0.241,0.627-0.539,0.627h-6.234c-0.298,0-0.54-0.281-0.54-0.627v-1.03v-2.587v-1.029c0-0.346,0.242-0.627,0.54-0.627   h6.234c0.298,0,0.539,0.281,0.539,0.627V46.032z M73.315,50.276H71.52c-0.344,0-0.625-0.28-0.625-0.625v-1.025v-2.576v-1.024   c0-0.345,0.281-0.625,0.625-0.625h0.792l1.628,5.25C74.154,50.162,73.66,50.276,73.315,50.276z M82.444,59.312   c-0.314,0-0.568-1.178-0.568-2.631c0-1.454,0.254-2.631,0.568-2.631c0.315,0,0.569,1.178,0.569,2.631   C83.014,58.134,82.759,59.312,82.444,59.312z"/><path d="M71.751,57.287c-3.306,0-5.986,2.68-5.986,5.986c0,3.305,2.68,5.986,5.986,5.986c3.306,0,5.985-2.681,5.985-5.986   C77.736,59.967,75.057,57.287,71.751,57.287z M71.751,65.86c-1.429,0-2.588-1.158-2.588-2.587s1.159-2.588,2.588-2.588   s2.588,1.159,2.588,2.588S73.18,65.86,71.751,65.86z"/><path d="M30.301,57.287c-3.306,0-5.985,2.68-5.985,5.986c0,3.305,2.68,5.986,5.985,5.986s5.986-2.681,5.986-5.986   C36.287,59.967,33.606,57.287,30.301,57.287z M30.301,65.86c-1.429,0-2.588-1.158-2.588-2.587s1.159-2.588,2.588-2.588   c1.43,0,2.588,1.159,2.588,2.588S31.73,65.86,30.301,65.86z"/><path d="M55.134,37.214H20.471c-1.188,0-2.152,1.074-2.152,2.399v1.459h31.52l-1.353,2.342H18.319v2.342h28.814l-1.353,2.342   H18.319v2.343h26.109l-1.352,2.343H18.319v7.902c0,1.325,0.964,2.399,2.152,2.399h2.45c-0.001-0.071-0.005-0.141-0.005-0.212   c0-4.072,3.312-7.385,7.384-7.385c4.072,0,7.385,3.313,7.385,7.385c0,0.071-0.003,0.141-0.005,0.212h17.454   c1.189,0,2.152-1.074,2.152-2.399V39.613C57.287,38.288,56.323,37.214,55.134,37.214z"/></g></svg>